<svg width="129" height="20" viewBox="0 0 129 20" fill="none" xmlns="http://www.w3.org/2000/svg">
<path d="M0.189367 0.242643C4.07175 0.251392 10.0463 -0.208497 13.2902 1.94002C17.5992 4.79422 17.6588 13.2779 14.4788 16.9807C13.1369 18.5431 11.3069 19.1973 9.31891 19.5354C8.63222 19.6484 7.93925 19.7202 7.24395 19.7503C5.12701 19.8423 2.97727 19.6922 0.857331 19.7871C0.594988 19.7988 0.265382 19.807 0.0517069 19.6549L0.0358449 19.4354C0.0712524 17.8585 -0.0584825 15.8822 0.386094 14.4046C0.982964 12.4205 2.43768 11.0749 4.21899 10.1213C6.71515 11.2296 12.3926 14.2641 14.9851 12.6254C16.6076 11.5998 16.115 8.06718 15.4866 7.42205C13.4398 5.32016 6.17228 8.12813 4.20409 9.80473C1.02931 8.14932 -0.249191 5.15322 0.0396748 1.78431C0.0808241 1.30391 -0.035243 0.787837 0.068929 0.304572L0.189367 0.242643Z" fill="black"/>
<path d="M26.5602 17.5515H24.0571L29.7969 2.12305H32.3648L38.1477 17.5515H35.5583L34.2852 13.84H27.8333L26.5602 17.5515ZM31.0485 4.32403L28.5454 11.8333H33.6163L31.0916 4.32403H31.0485Z" fill="black"/>
<path d="M46.8347 7.88445V2.12305H48.9493V17.5515H46.8347V16.2568H46.7915C46.1873 17.0336 45.13 17.8536 43.4037 17.8536C40.5986 17.8536 38.4623 15.6742 38.4623 12.0491C38.4623 8.4239 40.5986 6.22292 43.4037 6.22292C45.13 6.22292 46.1873 7.02131 46.7915 7.88445H46.8347ZM43.749 16.1058C45.6479 16.1058 46.8131 14.5306 46.8131 12.0491C46.8131 9.54597 45.6479 7.99234 43.749 7.99234C41.6775 7.99234 40.6633 9.89122 40.6633 12.0491C40.6633 14.2069 41.6775 16.1058 43.749 16.1058Z" fill="black"/>
<path d="M63.3056 6.22292C65.5282 6.22292 66.6503 7.56077 66.6503 9.9128V17.5515H64.5356V10.4954C64.5356 9.02809 64.2335 8.03549 62.6151 8.03549C61.0399 8.03549 60.0473 9.13598 60.0473 10.7975V17.5515H57.9327V10.4954C57.9327 9.02809 57.6306 8.03549 56.0122 8.03549C54.437 8.03549 53.4444 9.13598 53.4444 10.7975V17.5515H51.3297V6.54659H53.4444V7.9276H53.4875C54.0701 7.08605 55.0843 6.22292 56.7458 6.22292C58.2779 6.22292 59.2273 6.91342 59.6589 8.14338H59.7021C60.5005 7.08605 61.6225 6.22292 63.3056 6.22292Z" fill="black"/>
<path d="M73.8873 17.8752C70.4563 17.8752 68.3848 15.5016 68.3848 12.0491C68.3848 8.61811 70.4563 6.20134 73.9088 6.20134C77.3182 6.20134 79.3897 8.59653 79.3897 12.0275C79.3897 15.48 77.3182 17.8752 73.8873 17.8752ZM73.9088 16.1273C76.153 16.1273 77.1887 14.3363 77.1887 12.0491C77.1887 9.74018 76.153 7.97076 73.9088 7.97076C71.6215 7.97076 70.5858 9.74018 70.5858 12.0491C70.5858 14.3363 71.6215 16.1273 73.9088 16.1273Z" fill="black"/>
<path d="M86.9725 6.22292C89.0008 6.22292 90.6408 7.38815 90.6408 9.9128V17.5515H88.5261V10.4954C88.5261 9.02809 87.8787 8.03549 86.2819 8.03549C84.4694 8.03549 83.3041 9.13598 83.3041 10.7975V17.5515H81.1895V6.54659H83.3041V7.9276H83.3473C83.9299 7.08605 85.0736 6.22292 86.9725 6.22292Z" fill="black"/>
<path d="M100.738 7.88445V2.12305H102.853V17.5515H100.738V16.2568H100.695C100.091 17.0336 99.0335 17.8536 97.3073 17.8536C94.5021 17.8536 92.3658 15.6742 92.3658 12.0491C92.3658 8.4239 94.5021 6.22292 97.3073 6.22292C99.0335 6.22292 100.091 7.02131 100.695 7.88445H100.738ZM97.6525 16.1058C99.5514 16.1058 100.717 14.5306 100.717 12.0491C100.717 9.54597 99.5514 7.99234 97.6525 7.99234C95.581 7.99234 94.5668 9.89122 94.5668 12.0491C94.5668 14.2069 95.581 16.1058 97.6525 16.1058Z" fill="black"/>
<path d="M110.153 17.8752C106.722 17.8752 104.651 15.5016 104.651 12.0491C104.651 8.61811 106.722 6.20134 110.175 6.20134C113.584 6.20134 115.656 8.59653 115.656 12.0275C115.656 15.48 113.584 17.8752 110.153 17.8752ZM110.175 16.1273C112.419 16.1273 113.455 14.3363 113.455 12.0491C113.455 9.74018 112.419 7.97076 110.175 7.97076C107.887 7.97076 106.852 9.74018 106.852 12.0491C106.852 14.3363 107.887 16.1273 110.175 16.1273Z" fill="black"/>
<path d="M124.817 8.22557C122.557 8.22557 120.772 6.47509 120.772 4.11279C120.772 1.75048 122.557 0 124.817 0C127.078 0 128.862 1.75048 128.862 4.11279C128.862 6.47509 127.078 8.22557 124.817 8.22557ZM124.817 7.52878C126.687 7.52878 128.063 6.1012 128.063 4.11279C128.063 2.12437 126.687 0.696793 124.817 0.696793C122.948 0.696793 121.571 2.12437 121.571 4.11279C121.571 6.1012 122.948 7.52878 124.817 7.52878ZM124.239 6.35612H123.118V1.83546H125.004C126.058 1.83546 126.619 2.31132 126.619 3.16107C126.619 3.78988 126.245 4.16377 125.667 4.29973V4.31673C126.823 4.50367 126.449 6.22016 126.721 6.30514V6.35612H125.565C125.344 6.15218 125.718 4.75859 124.664 4.75859H124.239V6.35612ZM124.239 3.85786H124.698C125.157 3.85786 125.548 3.75589 125.548 3.26304C125.548 2.77018 125.157 2.68521 124.698 2.68521H124.239V3.85786Z" fill="black"/>
</svg>
